<?xml version="1.0" encoding="UTF-8"?>
<!DOCTYPE svg PUBLIC "-//W3C//DTD SVG 1.1//EN" "http://www.w3.org/Graphics/SVG/1.1/DTD/svg11.dtd">
<svg xmlns="http://www.w3.org/2000/svg" version="1.1" width="512px" height="512px" style="shape-rendering:geometricPrecision; text-rendering:geometricPrecision; image-rendering:optimizeQuality; fill-rule:evenodd; clip-rule:evenodd" xmlns:xlink="http://www.w3.org/1999/xlink">
<g><path style="opacity:0.997" fill="#4baf4f" d="M 178.5,-0.5 C 186.5,-0.5 194.5,-0.5 202.5,-0.5C 223.642,4.15616 241.142,14.8228 255,31.5C 260.456,27.0461 265.623,22.2128 270.5,17C 280.656,9.08899 291.989,3.58899 304.5,0.5C 334.468,11.6691 351.302,33.3357 355,65.5C 357.074,89.7248 352.074,112.391 340,133.5C 320.878,162.956 296.711,187.456 267.5,207C 259.167,212.167 250.833,217.333 242.5,222.5C 229.569,215.204 216.569,208.204 203.5,201.5C 203.5,200.833 203.167,200.5 202.5,200.5C 202.5,199.833 202.167,199.5 201.5,199.5C 201.167,199.5 200.833,199.5 200.5,199.5C 181.881,185.049 165.048,168.715 150,150.5C 135.888,132.176 127.221,111.509 124,88.5C 120.509,58.2977 129.675,32.7977 151.5,12C 159.835,6.16243 168.835,1.99577 178.5,-0.5 Z"/></g>
<g><path style="opacity:1" fill="#43a047" d="M 308.5,-0.5 C 316.5,-0.5 324.5,-0.5 332.5,-0.5C 361.351,7.75749 378.851,26.7575 385,56.5C 390.282,86.3759 384.616,114.043 368,139.5C 352.387,162.279 333.553,181.946 311.5,198.5C 311.167,198.5 310.833,198.5 310.5,198.5C 309.833,198.5 309.5,198.833 309.5,199.5C 308.833,199.5 308.5,199.833 308.5,200.5C 290.025,209.322 272.192,219.322 255,230.5C 254.241,247.187 254.408,263.854 255.5,280.5C 253.222,312.283 245.889,342.949 233.5,372.5C 232.833,372.5 232.5,372.833 232.5,373.5C 232.5,373.833 232.5,374.167 232.5,374.5C 221.829,394.005 207.163,409.838 188.5,422C 170.034,432.189 150.368,435.689 129.5,432.5C 155.678,425.642 176.511,410.975 192,388.5C 207.615,362.992 217.282,335.325 221,305.5C 224.141,280.594 225.141,255.594 224,230.5C 185.996,204.741 144.496,187.741 99.5,179.5C 122.261,177.492 144.594,179.992 166.5,187C 177.972,190.879 189.306,195.045 200.5,199.5C 200.833,200.833 201.167,200.833 201.5,199.5C 202.167,199.5 202.5,199.833 202.5,200.5C 203.167,200.5 203.5,200.833 203.5,201.5C 216.569,208.204 229.569,215.204 242.5,222.5C 250.833,217.333 259.167,212.167 267.5,207C 296.711,187.456 320.878,162.956 340,133.5C 352.074,112.391 357.074,89.7248 355,65.5C 351.302,33.3357 334.468,11.6691 304.5,0.5C 306.099,0.767809 307.432,0.434475 308.5,-0.5 Z"/></g>
<g><path style="opacity:1" fill="#388e3c" d="M 252.5,64.5 C 256.909,63.6185 260.409,64.9518 263,68.5C 263.667,98.1667 263.667,127.833 263,157.5C 260.133,162.687 255.967,163.854 250.5,161C 249.809,159.933 249.309,158.766 249,157.5C 248.333,127.833 248.333,98.1667 249,68.5C 250.376,67.2949 251.542,65.9616 252.5,64.5 Z"/></g>
<g><path style="opacity:0.997" fill="#4bae4f" d="M 99.5,179.5 C 144.496,187.741 185.996,204.741 224,230.5C 225.141,255.594 224.141,280.594 221,305.5C 217.282,335.325 207.615,362.992 192,388.5C 176.511,410.975 155.678,425.642 129.5,432.5C 102.413,425.382 85.9134,408.048 80,380.5C 76.915,363.854 78.0816,347.354 83.5,331C 83.1667,330.167 82.8333,329.333 82.5,328.5C 51.2654,323.237 29.5987,306.071 17.5,277C 10.553,245.175 19.8863,219.175 45.5,199C 61.5406,187.15 79.5406,180.65 99.5,179.5 Z"/></g>
<g><path style="opacity:0.998" fill="#4bae4f" d="M 382.5,179.5 C 416.603,183.632 442.103,200.632 459,230.5C 471.652,269.369 460.152,298.869 424.5,319C 415.314,323.17 405.814,326.337 396,328.5C 396.673,335.537 398.007,342.537 400,349.5C 402.971,370.016 398.971,389.016 388,406.5C 377.955,419.584 365.122,428.25 349.5,432.5C 317.592,424.426 294.092,405.759 279,376.5C 273.457,365.016 268.624,353.349 264.5,341.5C 260.102,321.382 257.102,301.049 255.5,280.5C 254.408,263.854 254.241,247.187 255,230.5C 272.192,219.322 290.025,209.322 308.5,200.5C 309.167,200.5 309.5,200.167 309.5,199.5C 309.5,198.833 309.833,198.5 310.5,198.5C 310.833,199.833 311.167,199.833 311.5,198.5C 334.213,188.709 357.879,182.375 382.5,179.5 Z"/></g>
<g><path style="opacity:1" fill="#43a047" d="M 349.5,432.5 C 365.122,428.25 377.955,419.584 388,406.5C 398.971,389.016 402.971,370.016 400,349.5C 398.007,342.537 396.673,335.537 396,328.5C 405.814,326.337 415.314,323.17 424.5,319C 460.152,298.869 471.652,269.369 459,230.5C 442.103,200.632 416.603,183.632 382.5,179.5C 413.278,175.362 441.278,182.195 466.5,200C 492.017,220.534 500.85,246.7 493,278.5C 484.586,298.582 470.419,313.082 450.5,322C 442.704,324.738 434.871,327.238 427,329.5C 434.932,352.357 434.265,375.024 425,397.5C 412.346,421.503 392.346,433.503 365,433.5C 359.813,433.34 354.646,433.007 349.5,432.5 Z"/></g>
<g><path style="opacity:1" fill="#388e3c" d="M 317.5,256.5 C 319.199,256.34 320.866,256.506 322.5,257C 350.5,273.667 378.5,290.333 406.5,307C 410.219,313.557 408.553,318.057 401.5,320.5C 372.876,304.521 344.543,288.021 316.5,271C 311.068,265.761 311.401,260.928 317.5,256.5 Z"/></g>
<g><path style="opacity:1" fill="#388e3c" d="M 189.5,257.5 C 197.149,257.314 200.315,260.981 199,268.5C 197.833,269.667 196.667,270.833 195.5,272C 167.457,289.021 139.124,305.521 110.5,321.5C 103.447,319.057 101.781,314.557 105.5,308C 133.729,291.392 161.729,274.559 189.5,257.5 Z"/></g>
<g><path style="opacity:0.986" fill="#388e3c" d="M 255.5,280.5 C 257.102,301.049 260.102,321.382 264.5,341.5C 262.971,387.126 258.471,432.459 251,477.5C 249.194,489.032 246.694,500.365 243.5,511.5C 225.5,511.5 207.5,511.5 189.5,511.5C 188.463,509.262 188.297,506.929 189,504.5C 208.992,463.023 223.492,419.689 232.5,374.5C 232.5,374.167 232.5,373.833 232.5,373.5C 233.167,373.5 233.5,373.167 233.5,372.5C 245.889,342.949 253.222,312.283 255.5,280.5 Z"/></g>
</svg>
